PathFileType	3	(X/Y/Z)	RCH0000002 BBF 06.c3d
DataRate	CameraRate	NumFrames	NumMarkers	Units	OrigDataRate	OrigDataStartFrame	OrigNumFrames
100.0	100.0	13	23	mm	100.0	512	380
Frame#	Time	LASI			RASI			LPAT			LKNE			LANK			LMED			LTOE			RPAT			RKNE			RANK			RTOE			RMED			RHEE			RPSI			T2			T10			LPSI			LHEE			MAN			RTHI			LTHI			RTIB			LTIB			
		X1	Y1	Z1	X2	Y2	Z2	X3	Y3	Z3	X4	Y4	Z4	X5	Y5	Z5	X6	Y6	Z6	X7	Y7	Z7	X8	Y8	Z8	X9	Y9	Z9	X10	Y10	Z10	X11	Y11	Z11	X12	Y12	Z12	X13	Y13	Z13	X14	Y14	Z14	X15	Y15	Z15	X16	Y16	Z16	X17	Y17	Z17	X18	Y18	Z18	X19	Y19	Z19	X20	Y20	Z20	X21	Y21	Z21	X22	Y22	Z22	X23	Y23	Z23	

512	5.110	710.63815	79.84081	632.51293	685.85357	-92.59116	663.50711	788.77817	25.06538	391.81394	763.11562	89.48092	344.62915	721.67411	119.22176	78.04717	723.70497	48.50467	85.26791	771.21273	85.26080	73.67733	612.02877	-32.78129	366.59067	556.13424	-83.49889	349.81816	432.13561	-69.32829	99.57545	467.30430	-27.87989	75.83785	424.82249	-3.14026	120.21581	398.08348	-43.68863	147.84761	584.58923	-15.31904	702.74107	568.66678	50.67923	969.51667	594.85788	33.03016	783.34653	592.92664	54.08346	687.17029	680.73214	76.39538	100.87120	707.13716	62.40532	952.47981	605.47045	-157.29964	447.16690	729.12653	160.77774	463.98025	495.80471	-144.01981	240.01819	748.40731	164.46614	239.34261	
513	5.120	720.47823	81.03213	633.08014	696.98417	-91.69205	662.06242	794.03670	26.32688	389.44184	767.66985	90.70791	342.73928	723.76653	118.89451	76.09863	725.79724	48.29759	84.14231	773.43424	84.82690	72.10181	626.02726	-32.56624	364.01655	569.39603	-82.77493	347.87703	438.36649	-70.31829	101.66007	471.91597	-28.61542	76.08300	431.53556	-4.11054	122.42552	406.19732	-44.61808	151.17957	595.27239	-15.74852	702.12134	577.49483	52.05365	968.71254	605.31045	32.86443	782.94163	603.13526	53.83686	687.56413	683.00416	76.31062	99.56448	716.04186	63.16876	952.51955	617.66262	-156.56366	445.76730	736.11638	162.01822	462.78778	506.62848	-144.05415	240.38178	751.79633	165.05749	237.04517	
514	5.130	730.01081	82.43953	633.89722	708.16404	-90.64023	660.49150	798.77161	28.63766	387.37745	771.44758	92.84996	341.25945	724.89287	119.64921	74.56511	726.81071	49.11570	83.45674	774.57471	85.32775	70.83404	640.90584	-32.34388	361.28656	583.53379	-82.00654	345.67842	445.36058	-71.29715	103.98685	477.19668	-29.41359	76.55342	439.06150	-5.05909	124.83166	415.23318	-45.49825	154.71299	605.88750	-16.38820	701.59171	586.33190	53.25412	968.04453	615.74333	32.46223	782.70558	613.13213	53.38767	688.22626	684.27691	77.38279	98.76204	724.92259	63.82009	952.67094	630.45445	-155.75883	444.23892	742.23141	163.94339	462.05848	518.38262	-144.06379	240.70665	754.42947	166.63601	235.16274	
515	5.140	739.20137	84.05269	634.94511	719.31923	-89.43184	658.82152	802.94680	31.89542	385.64968	774.46833	95.82750	340.20877	725.37762	121.40943	73.40383	727.02250	50.88663	83.16595	774.93473	86.67393	69.85657	656.59721	-32.09179	358.48263	598.50580	-81.19252	343.28042	453.15304	-72.25208	106.59224	483.23989	-30.28563	77.31627	447.44121	-5.96508	127.44526	425.19474	-46.29950	158.44737	616.37734	-17.19719	701.15544	595.17024	54.24587	967.53253	626.10339	31.83839	782.64636	622.87562	52.76997	689.13853	684.82098	79.55322	98.38877	733.77041	64.34102	952.92562	643.80456	-154.87716	442.63113	747.50446	166.50005	461.79788	531.05050	-144.03551	241.03653	756.48118	169.13455	233.67331	
516	5.150	748.02836	85.85394	636.19296	730.37835	-88.06829	657.08811	806.53529	35.93578	384.25982	776.76403	99.50541	339.57376	725.48108	124.00094	72.55817	726.68784	53.44972	83.20808	774.77785	88.71073	69.13983	673.01954	-31.78440	355.70720	614.25731	-80.33130	340.76034	461.78043	-73.17518	109.50107	490.15054	-31.24376	78.42830	456.71198	-6.81283	130.26491	436.07188	-46.99822	162.37029	626.69111	-18.12381	700.81371	604.00144	54.99936	967.19175	636.34097	31.01930	782.76507	632.33574	52.02870	690.27193	684.87130	82.64654	98.35518	742.57657	64.71659	953.27349	657.66044	-153.91315	441.00721	751.99851	169.59417	461.97500	544.60225	-143.95734	241.42513	758.06832	172.41186	232.53130	
517	5.160	756.48327	87.81827	637.60000	741.27557	-86.55726	655.33355	809.52479	40.54691	383.18539	778.37956	103.70495	339.31313	725.38686	127.17447	71.96509	726.02726	56.57594	83.51087	774.31773	91.23754	68.64657	690.07913	-31.39507	353.07884	630.72119	-79.42121	338.21152	471.28253	-74.06147	112.71813	498.04241	-32.29726	79.92723	466.90785	-7.59111	133.27182	447.84375	-47.57679	166.45200	636.78616	-19.10995	700.56588	612.81697	55.49239	967.03162	646.41192	30.04134	783.05570	641.49470	51.21570	691.58855	684.61561	86.39251	98.56601	751.33303	64.93610	953.70282	671.95829	-152.86508	439.44119	755.80053	173.09889	462.52718	558.99531	-143.81880	241.93093	759.24563	176.26757	231.67671	
518	5.170	764.56961	89.91392	639.11819	751.95341	-84.91315	653.60419	811.92231	45.48948	382.38595	779.37294	108.22028	339.36511	725.20259	130.63725	71.56235	725.21946	59.99573	83.99856	773.71337	94.03116	68.33624	707.67356	-30.89859	350.72584	647.81923	-78.46092	335.73864	481.70349	-74.90618	116.22067	507.03364	-33.44811	81.82425	478.05983	-8.29155	136.42598	460.48268	-48.02293	170.64111	646.62922	-20.09626	700.40978	621.60871	55.71198	967.05509	656.27916	28.94834	783.50528	650.34633	50.38489	693.04417	684.19119	90.46024	98.92908	760.03295	64.99374	954.20029	686.62371	-151.73597	438.01351	759.01361	176.86574	463.36859	574.17607	-143.61094	242.61077	760.01394	180.46383	231.04443	
519	5.180	772.30097	92.10370	640.69574	762.36508	-83.15670	651.94743	813.75737	50.51942	381.81004	779.81520	112.83755	339.65620	724.97174	134.08868	71.29457	724.39951	63.43070	84.59877	773.07176	96.86995	68.16881	725.69500	-30.27395	348.77847	665.46380	-77.44997	333.45192	493.09161	-75.70222	119.95337	517.24044	-34.68722	84.09889	490.19562	-8.90697	139.66448	473.95835	-48.32874	174.86223	656.19694	-21.02771	700.34186	630.36949	55.65569	967.25831	665.91362	27.78839	784.09473	658.89473	49.58692	694.59118	683.68893	94.49970	99.36331	768.67105	64.88901	954.75116	701.57333	-150.53420	436.80586	761.74859	180.73784	464.40079	590.08204	-143.32653	243.51302	760.33884	184.75069	230.57241	
520	5.190	779.69841	94.34674	642.28078	772.47620	-81.31401	650.40850	815.08330	55.41064	381.40206	779.78990	117.35412	340.11016	724.69269	137.25529	71.11754	723.66133	66.62495	85.24857	772.45588	99.55598	68.10777	744.03352	-29.50700	347.36049	683.56015	-76.38950	331.46052	505.49743	-76.43805	123.82717	528.76952	-35.99206	86.69750	503.33864	-9.42960	142.90267	488.24134	-48.48968	179.01670	665.47585	-21.85869	700.35728	639.09347	55.33218	967.63091	675.29456	26.61026	784.80014	667.15214	48.86426	696.18146	683.16266	98.18445	99.80490	777.24400	64.62671	955.33941	716.71757	-149.27360	435.89572	764.11616	184.56318	465.52410	606.64450	-142.96012	244.67130	760.17525	188.89163	230.20788	
521	5.200	786.78769	96.60069	643.82505	782.26580	-79.41496	649.02737	815.97660	59.97444	381.10845	779.39202	121.59556	340.65598	724.34068	139.92014	71.00028	723.06317	69.37184	85.89883	771.89583	101.93261	68.12204	762.58022	-28.59255	346.58082	702.00899	-75.28295	329.86602	518.96990	-77.09683	127.72299	541.70998	-37.32629	89.53594	517.50655	-9.84991	146.03844	503.30540	-48.50353	182.98668	674.46184	-22.55702	700.44975	647.77647	54.76095	968.15659	684.40940	25.45981	785.59435	675.13654	48.24704	697.76898	682.64111	101.24936	100.21116	785.75060	64.21662	955.94800	731.96450	-147.97295	435.35098	766.22034	188.20672	466.64802	623.79110	-142.50812	246.09993	759.49260	192.68584	229.91111	
522	5.210	793.59673	98.82387	645.28706	791.72643	-77.49138	647.83607	816.53406	64.07335	380.88234	778.72607	125.42825	341.23388	723.88832	141.94299	70.92515	722.63459	71.53290	86.51666	771.40089	103.89582	68.18685	781.22998	-27.53563	346.52628	720.70942	-74.13653	328.75627	533.55126	-77.65673	131.50004	556.12568	-38.64194	92.50636	532.70937	-10.15596	148.95931	519.12821	-48.36947	186.64273	683.15914	-23.10652	700.61130	656.41616	53.97121	968.81418	693.25314	24.37684	786.44864	682.86928	47.75049	699.31179	682.13985	103.51825	100.56148	794.19184	63.67285	956.55912	747.22462	-146.65488	435.22548	768.15371	191.55962	467.69939	641.44807	-141.96898	247.79156	758.29591	195.98473	229.65693	
523	5.220	800.15362	100.97740	646.63443	800.86353	-75.57511	646.85671	816.86777	67.62765	380.68638	777.90322	128.76645	341.79893	723.32151	143.26910	70.88617	722.38386	73.04663	87.08558	770.97031	105.39820	68.28379	799.88370	-26.35157	347.25587	739.56191	-72.95956	328.20028	549.27102	-78.09257	135.00816	572.04899	-39.88360	95.48729	548.94772	-10.33373	151.55153	535.69072	-48.08725	189.85386	691.57899	-23.50765	700.83183	665.01215	52.99995	969.57892	701.82753	23.39243	787.33453	690.37296	47.37396	700.77340	681.67126	104.91796	100.85567	802.57091	63.01289	957.15463	762.41616	-145.34426	435.55554	769.99479	194.54501	468.62753	659.54188	-141.34337	249.71777	756.63886	198.70103	229.43415	
524	5.230	806.48543	103.02686	647.84530	809.69400	-73.69624	646.10024	817.09850	70.61432	380.49378	777.03731	131.57333	342.32209	722.64861	143.92603	70.88609	722.30481	73.92683	87.60373	770.60166	106.44590	68.40018	818.45005	-25.06488	348.79742	758.47119	-71.76425	328.24447	566.14049	-78.37849	138.10222	589.47685	-40.99429	98.35554	566.21139	-10.36806	153.70997	552.97540	-47.65665	192.49868	699.73830	-23.77647	701.09879	673.56590	51.88932	970.42390	710.14013	22.52727	788.22515	697.67001	47.10185	702.12358	681.25093	105.47752	101.11010	810.89304	62.25647	957.71647	777.47027	-144.06631	436.35811	771.80751	197.11967	469.40592	678.00041	-140.63432	251.83218	754.62701	200.81012	229.24332	
